<svg t="1589356180961" class="icon" viewBox="0 0 1025 1024" version="1.1" xmlns="http://www.w3.org/2000/svg" p-id="6117" width="200" height="200"><path d="M219.501714 658.285714q0-30.281143-21.430857-51.712t-51.712-21.430857-51.712 21.430857-21.430857 51.712 21.430857 51.712 51.712 21.430857 51.712-21.430857 21.430857-51.712zM329.216 402.285714q0-30.281143-21.430857-51.712t-51.712-21.430857-51.712 21.430857-21.430857 51.712 21.430857 51.712 51.712 21.430857 51.712-21.430857 21.430857-51.712zM573.805714 677.156571l57.709714-218.258286q3.437714-14.848-4.315429-27.721143t-22.016-16.822857-27.428571 3.730286-17.115429 22.601143l-57.709714 218.258286q-34.304 2.852571-61.147429 24.868571t-35.986286 56.32q-11.410286 44.032 11.410286 83.456t66.852571 50.834286 83.456-11.410286 50.834286-66.852571q9.142857-34.304-3.437714-66.852571t-41.179429-52.004571zM950.930286 658.285714q0-30.281143-21.430857-51.712t-51.712-21.430857-51.712 21.430857-21.430857 51.712 21.430857 51.712 51.712 21.430857 51.712-21.430857 21.430857-51.712zM585.216 292.571429q0-30.281143-21.430857-51.712t-51.712-21.430857-51.712 21.430857-21.430857 51.712 21.430857 51.712 51.712 21.430857 51.712-21.430857 21.430857-51.712zM841.216 402.285714q0-30.281143-21.430857-51.712t-51.712-21.430857-51.712 21.430857-21.430857 51.712 21.430857 51.712 51.712 21.430857 51.712-21.430857 21.430857-51.712zM1024.073143 658.285714q0 149.138286-80.603429 275.968-10.825143 16.603429-30.866286 16.603429l-801.133714 0q-19.968 0-30.866286-16.603429-80.603429-126.317714-80.603429-275.968 0-104.009143 40.594286-198.875429t109.129143-163.401143 163.401143-109.129143 198.875429-40.594286 198.875429 40.594286 163.401143 109.129143 109.129143 163.401143 40.594286 198.875429z" p-id="6118" fill="#ffffff"></path></svg>