<svg t="1589609698057" class="icon" viewBox="0 0 1399 1024" version="1.1" xmlns="http://www.w3.org/2000/svg" p-id="1212" width="220" height="220"><path d="M1189.542786 858.07708l-31.450341 0L1158.092445 400.980969c0-27.679906-22.433002-50.119124-50.122232-50.119124l-224.507193 0L883.463019 50.122232c0-27.679906-22.433002-50.122232-50.122232-50.122232L337.12913 0c-27.673689 0-50.119124 22.442327-50.119124 50.122232l0 807.954847-11.364148 0c-27.679906 0-50.122232 22.433002-50.122232 50.109799l0 65.688877c0 27.676798 22.442327 50.119124 50.122232 50.119124l913.896928 0c27.683015 0 50.116015-22.442327 50.116015-50.119124l0-65.688877C1239.658802 880.510081 1217.228909 858.07708 1189.542786 858.07708L1189.542786 858.07708zM739.785502 674.979398c0 27.689231-22.445435 50.122232-50.122232 50.122232l-208.84419 0c-27.683015 0-50.122232-22.433002-50.122232-50.122232l0-15.035116c0-27.679906 22.439219-50.116015 50.122232-50.116015l208.84419 0c27.676798 0 50.122232 22.43611 50.122232 50.116015L739.785502 674.979398 739.785502 674.979398zM739.785502 456.116978c0 27.679906-22.445435 50.122232-50.122232 50.122232l-208.84419 0c-27.683015 0-50.122232-22.442327-50.122232-50.122232l0-15.035116c0-27.679906 22.439219-50.122232 50.122232-50.122232l208.84419 0c27.676798 0 50.122232 22.442327 50.122232 50.122232L739.785502 456.116978 739.785502 456.116978zM739.785502 220.537823c0 27.683015-22.445435 50.122232-50.122232 50.122232l-208.84419 0c-27.683015 0-50.122232-22.439219-50.122232-50.122232l0-15.028899c0-27.689231 22.439219-50.125341 50.122232-50.125341l208.84419 0c27.676798 0 50.122232 22.439219 50.122232 50.125341L739.785502 220.537823 739.785502 220.537823zM1059.517166 764.372594l-133.659287 0c-23.063998 0-41.766973-18.702975-41.766973-41.77319 0-23.06089 18.702975-41.766973 41.766973-41.766973l133.659287 0c23.070215 0 41.770081 18.706083 41.770081 41.766973C1101.290357 745.66962 1082.587381 764.372594 1059.517166 764.372594L1059.517166 764.372594zM1059.517166 595.619974l-133.659287 0c-23.063998 0-41.766973-18.699867-41.766973-41.760756 0-23.07954 18.702975-41.776298 41.766973-41.776298l133.659287 0c23.070215 0 41.770081 18.699867 41.770081 41.776298C1101.290357 576.920107 1082.587381 595.619974 1059.517166 595.619974L1059.517166 595.619974zM1059.517166 595.619974" p-id="1213" fill="#36a3f7"></path></svg>