<svg t="1589356040510" class="icon" viewBox="0 0 1024 1024" version="1.1" xmlns="http://www.w3.org/2000/svg" p-id="2949" width="200" height="200"><path d="M329.142857 256q0-30.285714-21.428571-51.714286t-51.714286-21.428571-51.714286 21.428571-21.428571 51.714286 21.428571 51.714286 51.714286 21.428571 51.714286-21.428571 21.428571-51.714286zm609.714286 329.142857q0 30.285714-21.142857 51.428571l-280.571429 281.142857q-22.285714 21.142857-52 21.142857-30.285714 0-51.428571-21.142857l-408.571429-409.142857q-21.714286-21.142857-36.857143-57.714286t-15.142857-66.857143l0-237.714286q0-29.714286 21.714286-51.428571t51.428571-21.714286l237.714286 0q30.285714 0 66.857143 15.142857t58.285714 36.857143l408.571429 408q21.142857 22.285714 21.142857 52z" p-id="2950" fill="#ffffff"></path></svg>